<?xml version="1.0" encoding="UTF-8"?>
<svg id="Layer_2" data-name="Layer 2" xmlns="http://www.w3.org/2000/svg" viewBox="0 0 192.57 38.88">
  <defs>
    <style>
      .cls-1 {
        fill: none;
        stroke: #ff2400;
        stroke-miterlimit: 10;
        stroke-width: .5px;
      }

      .cls-2 {
        fill: #ff2400;
      }
    </style>
  </defs>
  <path class="cls-1" d="M115.73,37.37c-3.66,0-6.96-.69-9.82-2.06-6.72-3.22-7.45-8.56-7.45-10.71v-10.36c0-2.15.73-7.48,7.45-10.71,2.87-1.37,6.17-2.06,9.82-2.06h8.67c3.66,0,6.97.7,9.83,2.08,6.71,3.23,7.44,8.55,7.44,10.69v10.36c0,2.13-.72,7.45-7.42,10.69-2.87,1.38-6.18,2.09-9.84,2.09h-8.67Z"/>
  <path class="cls-1" d="M115.73,35.21c-3.33,0-6.32-.62-8.88-1.85-5.62-2.69-6.22-7.02-6.22-8.76v-10.36c0-1.74.61-6.07,6.22-8.76,2.57-1.23,5.56-1.85,8.89-1.85h8.67c3.33,0,6.32.63,8.89,1.86,5.61,2.7,6.21,7.02,6.21,8.75v10.36c0,1.73-.6,6.04-6.2,8.74-2.57,1.24-5.57,1.87-8.9,1.87h-8.67Z"/>
  <path class="cls-1" d="M115.73,33.05c-3,0-5.68-.55-7.95-1.64-4.35-2.08-5-5.16-5-6.81v-10.36c0-1.65.65-4.73,4.99-6.81,2.28-1.09,4.95-1.64,7.95-1.64h8.67c3,0,5.68.55,7.96,1.65,4.34,2.09,4.99,5.16,4.99,6.8v10.36c0,1.64-.65,4.7-4.98,6.79-2.28,1.1-4.95,1.66-7.96,1.66h-8.67ZM120.07,22.34v-5.83h-.03v5.83h.03Z"/>
  <path class="cls-1" d="M115.73,30.89c-2.68,0-5.04-.48-7.02-1.43-3.11-1.49-3.77-3.47-3.77-4.86v-10.36c0-1.39.65-3.37,3.77-4.86,1.98-.95,4.34-1.43,7.02-1.43h8.67c2.68,0,5.04.48,7.02,1.44,3.11,1.5,3.77,3.47,3.77,4.86v10.36c0,1.38-.65,3.35-3.76,4.85-1.98.96-4.34,1.44-7.02,1.44h-8.67ZM117.93,24.1c.55.26,1.26.4,2.13.4s1.58-.13,2.13-.4c.02,0,.03-.01.04-.02v-9.31s-.03-.02-.05-.02c-.56-.26-1.28-.4-2.13-.4s-1.58.13-2.13.4c-.01,0-.03.01-.04.02v9.31s.03.01.04.02Z"/>
  <path class="cls-1" d="M115.73,10.11h8.67c2.36,0,4.39.41,6.08,1.22,1.69.81,2.54,1.78,2.54,2.91v10.36c0,1.12-.85,2.09-2.54,2.9-1.69.82-3.72,1.23-6.08,1.23h-8.67c-2.36,0-4.39-.41-6.08-1.22s-2.54-1.78-2.54-2.91v-10.36c0-1.13.85-2.1,2.54-2.91,1.69-.81,3.72-1.22,6.08-1.22ZM115.73,14.24v10.36c0,.56.42,1.04,1.27,1.45.84.41,1.87.61,3.07.61s2.22-.2,3.07-.61c.84-.41,1.27-.89,1.27-1.45v-10.36c0-.56-.43-1.05-1.29-1.45-.86-.4-1.87-.61-3.05-.61s-2.21.2-3.06.61-1.28.89-1.28,1.45Z"/>
  <path class="cls-2" d="M0,38.88V0h17.29C19.65,0,21.68.85,23.37,2.55c1.69,1.7,2.54,3.73,2.54,6.07v2.35c0,1.93-.66,3.79-1.98,5.58-1.32,1.79-3.54,2.68-6.64,2.68h4.29c1.19,0,2.21.42,3.06,1.28.85.85,1.28,1.87,1.28,3.06v15.31h-8.63v-12.96c0-1.19-.43-2.21-1.29-3.06-.86-.85-1.87-1.28-3.05-1.28h-4.33v17.29H0ZM8.62,17.29h4.33c1.17,0,2.19-.43,3.05-1.29.86-.86,1.29-1.87,1.29-3.05v-4.33c0-1.17-.43-2.18-1.29-3.03-.86-.84-1.87-1.27-3.05-1.27h-4.33v12.96Z"/>
  <path class="cls-2" d="M29.05,38.88V0h21.58v4.33h-12.96v12.96h8.67v4.29h-8.67v12.96h12.96v4.33h-21.58Z"/>
  <path class="cls-2" d="M54.11,38.88V0h17.29c2.36,0,4.39.85,6.08,2.55,1.69,1.7,2.54,3.73,2.54,6.07v21.62c0,2.34-.85,4.36-2.54,6.06-1.69,1.71-3.72,2.56-6.08,2.56h-17.29ZM62.74,34.54h4.33c1.2,0,2.22-.43,3.07-1.28.84-.85,1.27-1.86,1.27-3.02V8.62c0-1.17-.43-2.18-1.29-3.03-.86-.84-1.87-1.27-3.05-1.27h-4.33v30.21Z"/>
  <path class="cls-2" d="M82.02,0h25.92v4.33l-17.29,30.21h17.29v4.33h-25.92v-4.33l17.29-30.21h-17.29V0Z"/>
  <path class="cls-2" d="M137.57,39.01V.14h1.96l23.95,21.58V.14h4.33v38.88h-1.98l-23.93-21.58v21.58h-4.33Z"/>
  <path class="cls-2" d="M170.98,38.88V0h21.58v4.33h-12.96v12.96h8.67v4.29h-8.67v12.96h12.96v4.33h-21.58Z"/>
</svg>