<?xml version="1.0" encoding="UTF-8"?>
<svg id="Layer_1" data-name="Layer 1" xmlns="http://www.w3.org/2000/svg" viewBox="0 0 285.19 59.86">
  <defs>
    <style>
      .cls-1 {
        opacity: .32;
      }

      .cls-1, .cls-2 {
        fill: #ff0037;
      }
    </style>
  </defs>
  <g>
    <path class="cls-2" d="M1.32,29.34C1.32,19.95,1.14,11.53.18,2.4h21.94c13.69,0,21.59,6.58,21.59,18.87,0,6.84-3.07,12.11-8.07,15.36,2.02,7.55,5.62,15.97,9.21,22.64l-.09.18h-18.87l-5-18.87h-2.37c.09,6.58.26,12.81.79,18.87H0c1.14-8.95,1.32-20.1,1.32-30.1ZM26.06,21.88c0-8.34-2.37-11.58-7.28-11.58h-.35v22.64c4.83-.09,7.63-3.16,7.63-11.06Z"/>
    <path class="cls-2" d="M48.44,29.34c0-9.13-.09-17.81-.97-26.94h29.4l.88,10.09c-3.42-1.4-7.37-2.02-12.02-2.02v16.15c3.33-.09,6.41-.44,9.39-1.23v10.62c-3.07-1.05-6.05-1.4-9.3-1.49v16.76h.18c4.83,0,8.69-.53,12.64-2.02l-1.05,10.18h-30.36c1.14-9.04,1.23-20.27,1.23-30.1Z"/>
    <path class="cls-2" d="M82.92,29.34c0-9.39-.26-18.52-1.05-26.94h19.83c17.29,0,25.62,9.13,25.62,27.82s-8.51,29.22-25.62,29.22h-20.01c1.05-8.42,1.23-19.74,1.23-30.1ZM100.65,51.63c6.14,0,8.95-6.14,8.95-21.41,0-13.95-2.63-20.01-8.42-20.01h-.88v41.42h.35Z"/>
    <path class="cls-2" d="M127.15,58.65l15.27-48.53h-.09c-4.83.09-9.83,1.32-14.22,3.42l1.49-11.14h33.26l.09.26-15.88,49.58c6.05-.44,10.71-1.58,15.27-3.86l.26.17-1.32,10.88h-33.61l-.53-.79Z"/>
    <path class="cls-2" d="M212.36,30.74c0-7.99-.26-19.48-1.23-28.34h15.01l12.99,28.43h.44v-9.74c0-7.28-.44-11.67-1.49-18.6h11.32c-.97,8.42-1.23,17.9-1.23,28.26v28.7h-13.6l-13.6-28.52h-.17v7.46c0,7.2.35,13.08,1.84,21.06h-11.93c1.14-7.46,1.67-21.06,1.67-28.7Z"/>
    <path class="cls-2" d="M255,29.34c0-9.13-.09-17.81-.96-26.94h29.4l.88,10.09c-3.42-1.4-7.37-2.02-12.02-2.02v16.15c3.33-.09,6.41-.44,9.39-1.23v10.62c-3.07-1.05-6.06-1.4-9.3-1.49v16.76h.17c4.83,0,8.69-.53,12.64-2.02l-1.05,10.18h-30.36c1.14-9.04,1.23-20.27,1.23-30.1Z"/>
  </g>
  <g>
    <path class="cls-1" d="M185.94,0c-17.16,0-27.82,11.27-27.82,29.41,0,19.07,10.4,30.45,27.82,30.45s27.47-11.38,27.47-30.45S202.88,0,185.94,0ZM185.76,46.34c-2.63,0-3.6-3.59-3.6-16.14s.88-16.68,3.6-16.68,3.6,3.86,3.6,16.59-.88,16.23-3.6,16.23Z"/>
    <path class="cls-1" d="M185.94,3.61c-15.17,0-24.22,9.64-24.22,25.8,0,17.06,8.82,26.85,24.22,26.85s23.87-9.79,23.87-26.85c0-16.16-8.93-25.8-23.87-25.8ZM185.76,46.34c-2.63,0-3.6-3.59-3.6-16.14s.88-16.68,3.6-16.68,3.6,3.86,3.6,16.59-.88,16.23-3.6,16.23Z"/>
    <path class="cls-2" d="M185.94,7.21c-13.25,0-20.62,7.98-20.62,22.2,0,15.18,7.45,23.25,20.62,23.25s20.27-8.25,20.27-23.25c0-14.22-7.2-22.2-20.27-22.2ZM185.76,46.34c-2.63,0-3.6-3.59-3.6-16.14s.88-16.68,3.6-16.68,3.6,3.86,3.6,16.59-.88,16.23-3.6,16.23Z"/>
  </g>
</svg>